<svg width="65" height="66" viewBox="0 0 65 66" fill="none" xmlns="http://www.w3.org/2000/svg">
<path d="M10.5101 17.7095H8.41431V19.8091H10.5101V17.7095Z" fill="#B5FF56"/>
<path d="M14.7016 17.7095H12.6058V19.8091H14.7016V17.7095Z" fill="#B5FF56"/>
<path d="M18.8931 17.7095H16.7974V19.8091H18.8931V17.7095Z" fill="#B5FF56"/>
<path d="M61.9496 49.029L63.3653 46.5462L62.5857 45.7652C64.1816 41.8578 65 37.7227 65 33.4563C65 25.9534 62.395 18.6594 57.6648 12.8656V10.0427L52.4254 2.1692L49.8895 5.97997C44.6931 2.67416 38.7149 0.912598 32.5156 0.912598C22.3815 0.912598 13.0659 5.50231 6.85926 13.5102H4.22278V17.4742C1.48571 22.3306 0.03125 27.8462 0.03125 33.4563C0.03125 51.4005 14.6031 66 32.5156 66C36.7732 66 40.9008 65.1801 44.801 63.5802L45.5796 64.3613L48.0599 62.944C48.2978 63.0532 48.5367 63.154 48.7767 63.2443L49.5291 66H55.3207L56.0731 63.2443C56.313 63.154 56.552 63.0543 56.7898 62.944L59.2702 64.3613L63.3643 60.2587L61.9486 57.7759C62.0575 57.5386 62.1581 57.2982 62.2483 57.0568L65 56.303V50.5018L62.2493 49.7481C62.1592 49.5066 62.0586 49.2662 61.9496 49.029ZM62.9042 33.4563C62.9042 37.1505 62.2566 40.7419 60.9761 44.1527L59.2702 42.4436L57.6648 43.3611V16.3929C61.0526 21.4057 62.9042 27.3549 62.9042 33.4563ZM42.9012 49.029C42.7922 49.2662 42.6916 49.5066 42.6015 49.7481L39.8508 50.5018V51.3028H7.91867C7.34757 50.5155 6.81315 49.6998 6.31855 48.8579V24.0081H47.186V43.3611L45.5806 42.4436L41.4866 46.5462L42.9012 49.029ZM49.2818 11.4106H51.3775V40.8049H49.5291L49.2818 41.7119V11.4106ZM53.4733 11.4106H55.5691V41.7119L55.3218 40.8049H53.4733V11.4106ZM54.6595 9.31097H50.1924L52.4254 5.95477L54.6595 9.31097ZM32.5156 3.01219C38.2999 3.01219 43.8768 4.65092 48.7274 7.72578L47.186 10.0427V13.5102H9.56489C15.3461 6.81561 23.5919 3.01219 32.5156 3.01219ZM47.186 15.6098V21.9085H6.31855V15.6098H47.186ZM4.22278 22.3683V44.5443C2.8752 41.1051 2.12702 37.3678 2.12702 33.4563C2.12702 29.6455 2.85215 25.8841 4.22278 22.3683ZM32.5156 63.9004C23.3707 63.9004 15.1627 59.8272 9.5869 53.4024H39.8508V56.303L42.6015 57.0568C42.6916 57.2982 42.7922 57.5386 42.9012 57.7759L41.4855 60.2587L43.1925 61.9688C39.7879 63.2506 36.2031 63.9004 32.5156 63.9004ZM62.9042 54.701L60.6062 55.3309L60.4375 55.8821C60.2866 56.3681 60.0854 56.8521 59.8381 57.3192L59.5678 57.8294L60.7519 59.907L58.9191 61.7441L56.8454 60.5589L56.3372 60.8277C55.8656 61.0775 55.3815 61.2791 54.9005 61.4281L54.3514 61.5982L53.7206 63.9004H51.1292L50.4994 61.5982L49.9503 61.4281C49.4693 61.2791 48.9852 61.0775 48.5137 60.8277L48.0054 60.5589L45.9317 61.7441L44.0989 59.907L45.283 57.8294L45.0127 57.3192C44.7654 56.8521 44.5631 56.3681 44.4133 55.8821L44.2446 55.3309L41.9466 54.701V52.1038L44.2446 51.474L44.4133 50.9228C44.5642 50.4368 44.7654 49.9528 45.0127 49.4856L45.283 48.9754L44.0989 46.8979L45.9317 45.0608L48.0054 46.246L48.5137 45.9772C48.9852 45.7274 49.4693 45.5258 49.9503 45.3767L50.4994 45.2067L51.1302 42.9045H53.7216L54.3514 45.2067L54.9005 45.3767C55.3815 45.5258 55.8656 45.7274 56.3372 45.9772L56.8454 46.246L58.9191 45.0608L60.7519 46.8979L59.5678 48.9754L59.8381 49.4856C60.0854 49.9528 60.2877 50.4368 60.4375 50.9228L60.6062 51.474L62.9042 52.1038V54.701Z" fill="#B5FF56"/>
<path d="M52.4254 47.1035C48.9579 47.1035 46.1381 49.9285 46.1381 53.4023C46.1381 56.8761 48.9579 59.7011 52.4254 59.7011C55.8928 59.7011 58.7127 56.8761 58.7127 53.4023C58.7127 49.9285 55.8928 47.1035 52.4254 47.1035ZM52.4254 57.6015C50.1137 57.6015 48.2338 55.7181 48.2338 53.4023C48.2338 51.0864 50.1137 49.2031 52.4254 49.2031C54.737 49.2031 56.6169 51.0864 56.6169 53.4023C56.6169 55.7181 54.737 57.6015 52.4254 57.6015Z" fill="#B5FF56"/>
<path d="M29.372 26.1077H8.41431V36.6056H29.372V26.1077ZM27.2762 34.506H10.5101V28.2073H27.2762V34.506Z" fill="#B5FF56"/>
<path d="M45.0903 26.1077H31.4678V28.2073H45.0903V26.1077Z" fill="#B5FF56"/>
<path d="M45.0903 30.3069H31.4678V32.4065H45.0903V30.3069Z" fill="#B5FF56"/>
<path d="M45.0903 34.5061H42.9945V36.6057H45.0903V34.5061Z" fill="#B5FF56"/>
<path d="M40.8987 34.5061H31.4678V36.6057H40.8987V34.5061Z" fill="#B5FF56"/>
<path d="M8.41431 49.2033H23.0847V38.7053H8.41431V49.2033ZM10.5101 40.8049H20.9889V47.1037H10.5101V40.8049Z" fill="#B5FF56"/>
<path d="M25.1804 49.2033H39.8508V38.7053H25.1804V49.2033ZM27.2762 40.8049H37.755V47.1037H27.2762V40.8049Z" fill="#B5FF56"/>
</svg>
