<svg width="66" height="73" viewBox="0 0 66 73" fill="none" xmlns="http://www.w3.org/2000/svg">
<g clip-path="url(#clip0_151711_2)">
<path d="M11.3438 15.5127H9.28125V17.3377H11.3438V15.5127Z" fill="black"/>
<path d="M15.4688 15.5127H13.4062V17.3377H15.4688V15.5127Z" fill="black"/>
<path d="M19.5938 15.5127H17.5312V17.3377H19.5938V15.5127Z" fill="black"/>
<path d="M61.9668 42.7361L63.36 40.5781L62.5927 39.8992C64.1633 36.5028 64.9688 32.9085 64.9688 29.2001C64.9688 22.6785 62.4051 16.3384 57.75 11.3023V8.84861L52.5938 2.00486L50.0981 5.31724C44.9842 2.44377 39.1009 0.912598 33 0.912598C23.0268 0.912598 13.859 4.90205 7.75087 11.8626H5.15625V15.3082C2.46263 19.5294 1.03125 24.3237 1.03125 29.2001C1.03125 44.7975 15.3718 57.4876 33 57.4876C37.19 57.4876 41.2521 56.7749 45.0904 55.3843L45.8566 56.0632L48.2976 54.8313C48.5317 54.9262 48.7668 55.0138 49.0029 55.0923L49.7434 57.4876H55.4431L56.1835 55.0923C56.4197 55.0138 56.6548 54.9271 56.8889 54.8313L59.3299 56.0632L63.359 52.4971L61.9658 50.3391C62.073 50.1328 62.172 49.9239 62.2607 49.714L64.9688 49.0588V44.0164L62.2617 43.3612C62.173 43.1513 62.074 42.9423 61.9668 42.7361ZM62.9062 29.2001C62.9062 32.4112 62.2689 35.5328 61.0087 38.4976L59.3299 37.012L57.75 37.8095V14.3683C61.084 18.7255 62.9062 23.8966 62.9062 29.2001ZM43.2207 42.7361C43.1135 42.9423 43.0145 43.1513 42.9258 43.3612L40.2188 44.0164V44.7126H8.79347C8.23144 44.0282 7.7055 43.3192 7.21875 42.5874V20.9876H47.4375V37.8095L45.8576 37.012L41.8285 40.5781L43.2207 42.7361ZM49.5 10.0376H51.5625V35.5876H49.7434L49.5 36.376V10.0376ZM53.625 10.0376H55.6875V36.376L55.4441 35.5876H53.625V10.0376ZM54.7924 8.2126H50.3962L52.5938 5.29533L54.7924 8.2126ZM33 2.7376C38.6925 2.7376 44.1808 4.16201 48.9545 6.83472L47.4375 8.84861V11.8626H10.4136C16.103 6.04359 24.2179 2.7376 33 2.7376ZM47.4375 13.6876V19.1626H7.21875V13.6876H47.4375ZM5.15625 19.5623V38.8379C3.83006 35.8486 3.09375 32.6001 3.09375 29.2001C3.09375 25.8877 3.80738 22.6182 5.15625 19.5623ZM33 55.6626C24.0003 55.6626 15.9225 52.1221 10.4352 46.5376H40.2188V49.0588L42.9258 49.714C43.0145 49.9239 43.1135 50.1328 43.2207 50.3391L41.8275 52.4971L43.5074 53.9836C40.1569 55.0978 36.629 55.6626 33 55.6626ZM62.9062 47.6664L60.6447 48.2139L60.4787 48.6929C60.3302 49.1154 60.1322 49.5361 59.8888 49.9421L59.6228 50.3856L60.7881 52.1914L58.9844 53.7883L56.9436 52.7581L56.4434 52.9917C55.9793 53.2089 55.5029 53.3841 55.0296 53.5137L54.4892 53.6615L53.8684 55.6626H51.3181L50.6983 53.6615L50.1579 53.5137C49.6846 53.3841 49.2082 53.2089 48.7441 52.9917L48.2439 52.7581L46.2031 53.7883L44.3994 52.1914L45.5647 50.3856L45.2987 49.9421C45.0553 49.5361 44.8563 49.1154 44.7088 48.6929L44.5428 48.2139L42.2812 47.6664V45.4088L44.5428 44.8613L44.7088 44.3823C44.8573 43.9598 45.0553 43.5391 45.2987 43.1331L45.5647 42.6896L44.3994 40.8837L46.2031 39.2869L48.2439 40.3171L48.7441 40.0835C49.2082 39.8663 49.6846 39.6911 50.1579 39.5615L50.6983 39.4137L51.3191 37.4126H53.8694L54.4892 39.4137L55.0296 39.5615C55.5029 39.6911 55.9793 39.8663 56.4434 40.0835L56.9436 40.3171L58.9844 39.2869L60.7881 40.8837L59.6228 42.6896L59.8888 43.1331C60.1322 43.5391 60.3312 43.9598 60.4787 44.3823L60.6447 44.8613L62.9062 45.4088V47.6664Z" fill="black"/>
<path d="M52.5938 41.0625C49.1813 41.0625 46.4062 43.518 46.4062 46.5375C46.4062 49.557 49.1813 52.0125 52.5938 52.0125C56.0062 52.0125 58.7812 49.557 58.7812 46.5375C58.7812 43.518 56.0062 41.0625 52.5938 41.0625ZM52.5938 50.1875C50.3188 50.1875 48.4688 48.5505 48.4688 46.5375C48.4688 44.5245 50.3188 42.8875 52.5938 42.8875C54.8687 42.8875 56.7188 44.5245 56.7188 46.5375C56.7188 48.5505 54.8687 50.1875 52.5938 50.1875Z" fill="black"/>
<path d="M29.9062 22.8125H9.28125V31.9375H29.9062V22.8125ZM27.8438 30.1125H11.3438V24.6375H27.8438V30.1125Z" fill="black"/>
<path d="M45.375 22.8125H31.9688V24.6375H45.375V22.8125Z" fill="black"/>
<path d="M45.375 26.4626H31.9688V28.2876H45.375V26.4626Z" fill="black"/>
<path d="M45.375 30.1125H43.3125V31.9375H45.375V30.1125Z" fill="black"/>
<path d="M41.25 30.1125H31.9688V31.9375H41.25V30.1125Z" fill="black"/>
<path d="M9.28125 42.8877H23.7188V33.7627H9.28125V42.8877ZM11.3438 35.5877H21.6562V41.0627H11.3438V35.5877Z" fill="black"/>
<path d="M25.7812 42.8877H40.2188V33.7627H25.7812V42.8877ZM27.8438 35.5877H38.1562V41.0627H27.8438V35.5877Z" fill="black"/>
</g>
<defs>
<clipPath id="clip0_151711_2">
<rect width="66" height="73" fill="white"/>
</clipPath>
</defs>
</svg>
